<svg width="84" height="127" viewBox="0 0 84 127" fill="none" xmlns="http://www.w3.org/2000/svg">
<circle cx="3" cy="3" r="3" fill="#F50D32" fill-opacity="0.6"/>
<circle cx="3" cy="14" r="3" fill="#F50D32" fill-opacity="0.6"/>
<circle cx="3" cy="25" r="3" fill="#F50D32" fill-opacity="0.6"/>
<circle cx="3" cy="36" r="3" fill="#F50D32" fill-opacity="0.6"/>
<circle cx="3" cy="47" r="3" fill="#F50D32" fill-opacity="0.6"/>
<circle cx="3" cy="58" r="3" fill="#F50D32" fill-opacity="0.6"/>
<circle cx="3" cy="69" r="3" fill="#F50D32" fill-opacity="0.6"/>
<circle cx="3" cy="80" r="3" fill="#F50D32" fill-opacity="0.6"/>
<circle cx="3" cy="91" r="3" fill="#F50D32" fill-opacity="0.6"/>
<circle cx="3" cy="102" r="3" fill="#F50D32" fill-opacity="0.6"/>
<circle cx="3" cy="113" r="3" fill="#F50D32" fill-opacity="0.6"/>
<circle cx="3" cy="124" r="3" fill="#F50D32" fill-opacity="0.6"/>
<circle cx="16" cy="3" r="3" fill="#F50D32" fill-opacity="0.6"/>
<circle cx="16" cy="14" r="3" fill="#F50D32" fill-opacity="0.6"/>
<circle cx="16" cy="25" r="3" fill="#F50D32" fill-opacity="0.6"/>
<circle cx="16" cy="36" r="3" fill="#F50D32" fill-opacity="0.6"/>
<circle cx="16" cy="47" r="3" fill="#F50D32" fill-opacity="0.6"/>
<circle cx="16" cy="58" r="3" fill="#F50D32" fill-opacity="0.6"/>
<circle cx="16" cy="69" r="3" fill="#F50D32" fill-opacity="0.6"/>
<circle cx="16" cy="80" r="3" fill="#F50D32" fill-opacity="0.6"/>
<circle cx="16" cy="91" r="3" fill="#F50D32" fill-opacity="0.6"/>
<circle cx="16" cy="102" r="3" fill="#F50D32" fill-opacity="0.6"/>
<circle cx="16" cy="113" r="3" fill="#F50D32" fill-opacity="0.6"/>
<circle cx="16" cy="124" r="3" fill="#F50D32" fill-opacity="0.6"/>
<circle cx="29" cy="3" r="3" fill="#F50D32" fill-opacity="0.6"/>
<circle cx="29" cy="14" r="3" fill="#F50D32" fill-opacity="0.6"/>
<circle cx="29" cy="25" r="3" fill="#F50D32" fill-opacity="0.6"/>
<circle cx="29" cy="36" r="3" fill="#F50D32" fill-opacity="0.6"/>
<circle cx="29" cy="47" r="3" fill="#F50D32" fill-opacity="0.6"/>
<circle cx="29" cy="58" r="3" fill="#F50D32" fill-opacity="0.6"/>
<circle cx="29" cy="69" r="3" fill="#F50D32" fill-opacity="0.6"/>
<circle cx="29" cy="80" r="3" fill="#F50D32" fill-opacity="0.6"/>
<circle cx="29" cy="91" r="3" fill="#F50D32" fill-opacity="0.6"/>
<circle cx="29" cy="102" r="3" fill="#F50D32" fill-opacity="0.6"/>
<circle cx="29" cy="113" r="3" fill="#F50D32" fill-opacity="0.6"/>
<circle cx="29" cy="124" r="3" fill="#F50D32" fill-opacity="0.6"/>
<circle cx="42" cy="3" r="3" fill="#F50D32" fill-opacity="0.6"/>
<circle cx="42" cy="14" r="3" fill="#F50D32" fill-opacity="0.6"/>
<circle cx="42" cy="25" r="3" fill="#F50D32" fill-opacity="0.6"/>
<circle cx="42" cy="36" r="3" fill="#F50D32" fill-opacity="0.6"/>
<circle cx="42" cy="47" r="3" fill="#F50D32" fill-opacity="0.6"/>
<circle cx="42" cy="58" r="3" fill="#F50D32" fill-opacity="0.6"/>
<circle cx="42" cy="69" r="3" fill="#F50D32" fill-opacity="0.6"/>
<circle cx="42" cy="80" r="3" fill="#F50D32" fill-opacity="0.6"/>
<circle cx="42" cy="91" r="3" fill="#F50D32" fill-opacity="0.6"/>
<circle cx="42" cy="102" r="3" fill="#F50D32" fill-opacity="0.6"/>
<circle cx="42" cy="113" r="3" fill="#F50D32" fill-opacity="0.6"/>
<circle cx="42" cy="124" r="3" fill="#F50D32" fill-opacity="0.6"/>
<circle cx="55" cy="3" r="3" fill="#F50D32" fill-opacity="0.6"/>
<circle cx="55" cy="14" r="3" fill="#F50D32" fill-opacity="0.6"/>
<circle cx="55" cy="25" r="3" fill="#F50D32" fill-opacity="0.6"/>
<circle cx="55" cy="36" r="3" fill="#F50D32" fill-opacity="0.6"/>
<circle cx="55" cy="47" r="3" fill="#F50D32" fill-opacity="0.6"/>
<circle cx="55" cy="58" r="3" fill="#F50D32" fill-opacity="0.6"/>
<circle cx="55" cy="69" r="3" fill="#F50D32" fill-opacity="0.6"/>
<circle cx="55" cy="80" r="3" fill="#F50D32" fill-opacity="0.6"/>
<circle cx="55" cy="91" r="3" fill="#F50D32" fill-opacity="0.6"/>
<circle cx="55" cy="102" r="3" fill="#F50D32" fill-opacity="0.6"/>
<circle cx="55" cy="113" r="3" fill="#F50D32" fill-opacity="0.6"/>
<circle cx="55" cy="124" r="3" fill="#F50D32" fill-opacity="0.6"/>
<circle cx="68" cy="3" r="3" fill="#F50D32" fill-opacity="0.6"/>
<circle cx="68" cy="14" r="3" fill="#F50D32" fill-opacity="0.6"/>
<circle cx="68" cy="25" r="3" fill="#F50D32" fill-opacity="0.6"/>
<circle cx="68" cy="36" r="3" fill="#F50D32" fill-opacity="0.6"/>
<circle cx="68" cy="47" r="3" fill="#F50D32" fill-opacity="0.6"/>
<circle cx="68" cy="58" r="3" fill="#F50D32" fill-opacity="0.6"/>
<circle cx="68" cy="69" r="3" fill="#F50D32" fill-opacity="0.6"/>
<circle cx="68" cy="80" r="3" fill="#F50D32" fill-opacity="0.6"/>
<circle cx="68" cy="91" r="3" fill="#F50D32" fill-opacity="0.6"/>
<circle cx="68" cy="102" r="3" fill="#F50D32" fill-opacity="0.6"/>
<circle cx="68" cy="113" r="3" fill="#F50D32" fill-opacity="0.6"/>
<circle cx="68" cy="124" r="3" fill="#F50D32" fill-opacity="0.6"/>
<circle cx="81" cy="3" r="3" fill="#F50D32" fill-opacity="0.6"/>
<circle cx="81" cy="14" r="3" fill="#F50D32" fill-opacity="0.6"/>
<circle cx="81" cy="25" r="3" fill="#F50D32" fill-opacity="0.6"/>
<circle cx="81" cy="36" r="3" fill="#F50D32" fill-opacity="0.6"/>
<circle cx="81" cy="47" r="3" fill="#F50D32" fill-opacity="0.6"/>
<circle cx="81" cy="58" r="3" fill="#F50D32" fill-opacity="0.6"/>
<circle cx="81" cy="69" r="3" fill="#F50D32" fill-opacity="0.6"/>
<circle cx="81" cy="80" r="3" fill="#F50D32" fill-opacity="0.6"/>
<circle cx="81" cy="91" r="3" fill="#F50D32" fill-opacity="0.6"/>
<circle cx="81" cy="102" r="3" fill="#F50D32" fill-opacity="0.6"/>
<circle cx="81" cy="113" r="3" fill="#F50D32" fill-opacity="0.6"/>
<circle cx="81" cy="124" r="3" fill="#F50D32" fill-opacity="0.6"/>
</svg>
