<svg width="332" height="352" viewBox="0 0 332 352" fill="none" xmlns="http://www.w3.org/2000/svg">
<mask id="mask0_0_1" style="mask-type:alpha" maskUnits="userSpaceOnUse" x="128" y="116" width="269" height="269">
<circle cx="262.229" cy="250.229" r="134" transform="rotate(-109.987 262.229 250.229)" fill="#C4C4C4"/>
</mask>
<g mask="url(#mask0_0_1)">
<line x1="-13.0016" y1="299.3" x2="332.847" y2="-34.9898" stroke="#2E2E30" stroke-width="2"/>
<line x1="3.67806" y1="316.556" x2="349.527" y2="-17.7334" stroke="#2E2E30" stroke-width="2"/>
<line x1="20.3577" y1="333.813" x2="366.207" y2="-0.476889" stroke="#2E2E30" stroke-width="2"/>
<line x1="37.0374" y1="351.069" x2="382.886" y2="16.7797" stroke="#2E2E30" stroke-width="2"/>
<line x1="53.7171" y1="368.326" x2="399.566" y2="34.0362" stroke="#2E2E30" stroke-width="2"/>
<line x1="70.3968" y1="385.582" x2="416.246" y2="51.2926" stroke="#2E2E30" stroke-width="2"/>
<line x1="87.077" y1="402.839" x2="432.926" y2="68.5491" stroke="#2E2E30" stroke-width="2"/>
<line x1="103.757" y1="420.095" x2="449.606" y2="85.8056" stroke="#2E2E30" stroke-width="2"/>
<line x1="120.436" y1="437.352" x2="466.285" y2="103.062" stroke="#2E2E30" stroke-width="2"/>
<line x1="137.116" y1="454.608" x2="482.965" y2="120.319" stroke="#2E2E30" stroke-width="2"/>
<line x1="153.796" y1="471.865" x2="499.645" y2="137.575" stroke="#2E2E30" stroke-width="2"/>
<line x1="170.475" y1="489.121" x2="516.324" y2="154.832" stroke="#2E2E30" stroke-width="2"/>
<line x1="187.155" y1="506.378" x2="533.004" y2="172.088" stroke="#2E2E30" stroke-width="2"/>
</g>
<path d="M0.774148 193.75C0.440812 191.465 2.7063 189.676 4.85202 190.53L77.2702 219.35C79.416 220.204 79.8326 223.06 78.0202 224.492L16.8522 272.797C15.0398 274.229 12.3576 273.161 12.0243 270.876L0.774148 193.75Z" fill="#2E2E30"/>
<path d="M63.9737 44.1954C64.1729 43.4518 65.1024 43.2028 65.6467 43.7471L67.0609 42.3329L65.6467 43.7471L80.3436 58.444C80.888 58.9884 80.6389 59.9178 79.8953 60.1171L59.8189 65.4965C59.0754 65.6958 58.395 65.0153 58.5942 64.2718L63.9737 44.1954Z" stroke="#2E2E30" stroke-width="4"/>
</svg>
