<svg width="132" height="19" viewBox="0 0 132 19" fill="none" xmlns="http://www.w3.org/2000/svg">
<path d="M0 0.285999H5.174L10.452 10.946L15.704 0.285999H20.878V18.512H16.666L16.64 6.968L11.986 16.692H8.918L4.238 6.968V18.512H0V0.285999Z" fill="#F50D32"/>
<path d="M33.1098 0C34.9644 0 36.6371 0.407333 38.1278 1.222C39.6358 2.03667 40.8144 3.15467 41.6638 4.576C42.5304 5.99733 42.9638 7.592 42.9638 9.36C42.9638 11.1453 42.5304 12.7573 41.6638 14.196C40.8144 15.6347 39.6358 16.77 38.1278 17.602C36.6371 18.434 34.9644 18.85 33.1098 18.85C31.2551 18.85 29.5738 18.4427 28.0658 17.628C26.5751 16.796 25.3964 15.6607 24.5298 14.222C23.6804 12.766 23.2558 11.1453 23.2558 9.36C23.2558 7.592 23.6804 5.99733 24.5298 4.576C25.3964 3.15467 26.5751 2.03667 28.0658 1.222C29.5738 0.407333 31.2551 0 33.1098 0ZM33.1618 4.03C32.2604 4.03 31.4198 4.264 30.6398 4.732C29.8771 5.2 29.2704 5.85 28.8198 6.682C28.3691 7.49667 28.1438 8.398 28.1438 9.386C28.1438 10.3913 28.3691 11.31 28.8198 12.142C29.2878 12.9567 29.9031 13.6067 30.6658 14.092C31.4284 14.56 32.2604 14.794 33.1618 14.794C34.0631 14.794 34.8864 14.56 35.6318 14.092C36.3944 13.6067 36.9924 12.9567 37.4258 12.142C37.8591 11.31 38.0758 10.3913 38.0758 9.386C38.0758 8.398 37.8591 7.49667 37.4258 6.682C36.9924 5.85 36.3944 5.2 35.6318 4.732C34.8864 4.264 34.0631 4.03 33.1618 4.03Z" fill="#F50D32"/>
<path d="M53.9803 0.285999C55.3496 0.285999 56.5369 0.476666 57.5423 0.858C58.5649 1.222 59.3536 1.75067 59.9083 2.444C60.4629 3.13733 60.7403 3.952 60.7403 4.888C60.7403 5.84133 60.4543 6.67333 59.8823 7.384C59.3276 8.09467 58.5649 8.58 57.5943 8.84C58.7556 9.06533 59.6656 9.594 60.3243 10.426C61.0003 11.258 61.3383 12.2633 61.3383 13.442C61.3383 14.4647 61.0523 15.366 60.4803 16.146C59.9083 16.9087 59.0936 17.498 58.0363 17.914C56.9789 18.3127 55.7396 18.512 54.3183 18.512H45.3223V0.285999H53.9803ZM53.7203 7.54C54.3789 7.54 54.8989 7.384 55.2803 7.072C55.6616 6.74267 55.8523 6.292 55.8523 5.72C55.8523 5.16533 55.6616 4.74067 55.2803 4.446C54.8989 4.134 54.3789 3.98667 53.7203 4.004H50.0803V7.54H53.7203ZM53.7203 14.82C54.5523 14.82 55.2109 14.6467 55.6963 14.3C56.1816 13.9533 56.4243 13.468 56.4243 12.844C56.4243 12.272 56.1816 11.8213 55.6963 11.492C55.2109 11.1453 54.5523 10.9807 53.7203 10.998H50.0803V14.82H53.7203Z" fill="#F50D32"/>
<path d="M71.7856 0.285999C73.6923 0.285999 75.3736 0.667333 76.8296 1.43C78.3029 2.19267 79.4469 3.26733 80.2616 4.654C81.0763 6.02333 81.4836 7.60067 81.4836 9.386C81.4836 11.1713 81.0676 12.7573 80.2356 14.144C79.4209 15.5307 78.2596 16.6053 76.7516 17.368C75.2609 18.1307 73.5449 18.512 71.6036 18.512H63.9336V0.285999H71.7856ZM71.9156 14.664C72.8343 14.664 73.6489 14.4473 74.3596 14.014C75.0703 13.5807 75.6249 12.9653 76.0236 12.168C76.4223 11.3707 76.6216 10.4607 76.6216 9.438C76.6216 8.398 76.4049 7.47933 75.9716 6.682C75.5556 5.88467 74.9749 5.26933 74.2296 4.836C73.4843 4.38533 72.6349 4.16 71.6816 4.16H68.6916V14.664H71.9156Z" fill="#F50D32"/>
<path d="M83.8398 0.285999H98.2178V4.082H88.5978V7.488H97.2818V11.258L88.5978 11.284V14.716H98.4778V18.512H83.8398V0.285999Z" fill="#F50D32"/>
<path d="M99.5648 0.285999H104.687L109.237 13.468L113.813 0.285999H118.701L111.577 18.512H106.637L99.5648 0.285999Z" fill="#F50D32"/>
<path d="M123.232 10.512H131.232V18.512H123.232V10.512Z" fill="white"/>
</svg>
