<svg width="122" height="107" viewBox="0 0 122 107" fill="none" xmlns="http://www.w3.org/2000/svg">
<path d="M-130 13.8296C-123.667 8.99625 -108.1 -0.0704184 -96.5 2.32958C-82 5.32958 -81 20.8296 -62.5 13.8296C-44 6.82958 -37 -2.17042 -24.5 2.32958C-12 6.82958 -9.5 13.3296 2 10.3296C13.5 7.32956 19 -1.1704 31.5 2.32958C44 5.82956 44.5 14.8296 63.5 10.3296C82.5 5.82956 88 -2.1704 100 2.32958C109.6 5.92956 118 9.16289 121 10.3296" stroke="#2E2E30" stroke-width="2"/>
<path d="M-130 13.8296C-123.667 8.99625 -108.1 -0.0704184 -96.5 2.32958C-82 5.32958 -81 20.8296 -62.5 13.8296C-44 6.82958 -37 -2.17042 -24.5 2.32958C-12 6.82958 -9.5 13.3296 2 10.3296C13.5 7.32956 19 -1.1704 31.5 2.32958C44 5.82956 44.5 14.8296 63.5 10.3296C82.5 5.82956 88 -2.1704 100 2.32958C109.6 5.92956 118 9.16289 121 10.3296" stroke="#2E2E30" stroke-width="2"/>
<path d="M-130 28.8296C-123.667 23.9962 -108.1 14.9296 -96.5 17.3296C-82 20.3296 -81 35.8296 -62.5 28.8296C-44 21.8296 -37 12.8296 -24.5 17.3296C-12 21.8296 -9.5 28.3296 2 25.3296C13.5 22.3296 19 13.8296 31.5 17.3296C44 20.8296 44.5 29.8296 63.5 25.3296C82.5 20.8296 88 12.8296 100 17.3296C109.6 20.9296 118 24.1629 121 25.3296" stroke="#2E2E30" stroke-width="2"/>
<path d="M-130 28.8296C-123.667 23.9962 -108.1 14.9296 -96.5 17.3296C-82 20.3296 -81 35.8296 -62.5 28.8296C-44 21.8296 -37 12.8296 -24.5 17.3296C-12 21.8296 -9.5 28.3296 2 25.3296C13.5 22.3296 19 13.8296 31.5 17.3296C44 20.8296 44.5 29.8296 63.5 25.3296C82.5 20.8296 88 12.8296 100 17.3296C109.6 20.9296 118 24.1629 121 25.3296" stroke="#2E2E30" stroke-width="2"/>
<path d="M-130 43.8296C-123.667 38.9962 -108.1 29.9296 -96.5 32.3296C-82 35.3296 -81 50.8296 -62.5 43.8296C-44 36.8296 -37 27.8296 -24.5 32.3296C-12 36.8296 -9.5 43.3296 2 40.3296C13.5 37.3296 19 28.8296 31.5 32.3296C44 35.8296 44.5 44.8296 63.5 40.3296C82.5 35.8296 88 27.8296 100 32.3296C109.6 35.9296 118 39.1629 121 40.3296" stroke="#2E2E30" stroke-width="2"/>
<path d="M-130 43.8296C-123.667 38.9962 -108.1 29.9296 -96.5 32.3296C-82 35.3296 -81 50.8296 -62.5 43.8296C-44 36.8296 -37 27.8296 -24.5 32.3296C-12 36.8296 -9.5 43.3296 2 40.3296C13.5 37.3296 19 28.8296 31.5 32.3296C44 35.8296 44.5 44.8296 63.5 40.3296C82.5 35.8296 88 27.8296 100 32.3296C109.6 35.9296 118 39.1629 121 40.3296" stroke="#2E2E30" stroke-width="2"/>
<path d="M-130 58.8296C-123.667 53.9962 -108.1 44.9296 -96.5 47.3296C-82 50.3296 -81 65.8296 -62.5 58.8296C-44 51.8296 -37 42.8296 -24.5 47.3296C-12 51.8296 -9.5 58.3296 2 55.3296C13.5 52.3296 19 43.8296 31.5 47.3296C44 50.8296 44.5 59.8296 63.5 55.3296C82.5 50.8296 88 42.8296 100 47.3296C109.6 50.9296 118 54.1629 121 55.3296" stroke="#2E2E30" stroke-width="2"/>
<path d="M-130 58.8296C-123.667 53.9962 -108.1 44.9296 -96.5 47.3296C-82 50.3296 -81 65.8296 -62.5 58.8296C-44 51.8296 -37 42.8296 -24.5 47.3296C-12 51.8296 -9.5 58.3296 2 55.3296C13.5 52.3296 19 43.8296 31.5 47.3296C44 50.8296 44.5 59.8296 63.5 55.3296C82.5 50.8296 88 42.8296 100 47.3296C109.6 50.9296 118 54.1629 121 55.3296" stroke="#2E2E30" stroke-width="2"/>
<path d="M-130 73.8296C-123.667 68.9962 -108.1 59.9296 -96.5 62.3296C-82 65.3296 -81 80.8296 -62.5 73.8296C-44 66.8296 -37 57.8296 -24.5 62.3296C-12 66.8296 -9.5 73.3296 2 70.3296C13.5 67.3296 19 58.8296 31.5 62.3296C44 65.8296 44.5 74.8296 63.5 70.3296C82.5 65.8296 88 57.8296 100 62.3296C109.6 65.9296 118 69.1629 121 70.3296" stroke="#2E2E30" stroke-width="2"/>
<path d="M-130 73.8296C-123.667 68.9962 -108.1 59.9296 -96.5 62.3296C-82 65.3296 -81 80.8296 -62.5 73.8296C-44 66.8296 -37 57.8296 -24.5 62.3296C-12 66.8296 -9.5 73.3296 2 70.3296C13.5 67.3296 19 58.8296 31.5 62.3296C44 65.8296 44.5 74.8296 63.5 70.3296C82.5 65.8296 88 57.8296 100 62.3296C109.6 65.9296 118 69.1629 121 70.3296" stroke="#2E2E30" stroke-width="2"/>
<path d="M-130 88.8296C-123.667 83.9962 -108.1 74.9296 -96.5 77.3296C-82 80.3296 -81 95.8296 -62.5 88.8296C-44 81.8296 -37 72.8296 -24.5 77.3296C-12 81.8296 -9.5 88.3296 2 85.3296C13.5 82.3296 19 73.8296 31.5 77.3296C44 80.8296 44.5 89.8296 63.5 85.3296C82.5 80.8296 88 72.8296 100 77.3296C109.6 80.9296 118 84.1629 121 85.3296" stroke="#2E2E30" stroke-width="2"/>
<path d="M-130 88.8296C-123.667 83.9962 -108.1 74.9296 -96.5 77.3296C-82 80.3296 -81 95.8296 -62.5 88.8296C-44 81.8296 -37 72.8296 -24.5 77.3296C-12 81.8296 -9.5 88.3296 2 85.3296C13.5 82.3296 19 73.8296 31.5 77.3296C44 80.8296 44.5 89.8296 63.5 85.3296C82.5 80.8296 88 72.8296 100 77.3296C109.6 80.9296 118 84.1629 121 85.3296" stroke="#2E2E30" stroke-width="2"/>
<path d="M-130 103.83C-123.667 98.9962 -108.1 89.9296 -96.5 92.3296C-82 95.3296 -81 110.83 -62.5 103.83C-44 96.8296 -37 87.8296 -24.5 92.3296C-12 96.8296 -9.5 103.33 2 100.33C13.5 97.3296 19 88.8296 31.5 92.3296C44 95.8296 44.5 104.83 63.5 100.33C82.5 95.8296 88 87.8296 100 92.3296C109.6 95.9296 118 99.1629 121 100.33" stroke="#2E2E30" stroke-width="2"/>
<path d="M-130 103.83C-123.667 98.9962 -108.1 89.9296 -96.5 92.3296C-82 95.3296 -81 110.83 -62.5 103.83C-44 96.8296 -37 87.8296 -24.5 92.3296C-12 96.8296 -9.5 103.33 2 100.33C13.5 97.3296 19 88.8296 31.5 92.3296C44 95.8296 44.5 104.83 63.5 100.33C82.5 95.8296 88 87.8296 100 92.3296C109.6 95.9296 118 99.1629 121 100.33" stroke="#2E2E30" stroke-width="2"/>
</svg>
